<?xml version="1.0" standalone="no"?>
<!DOCTYPE svg PUBLIC "-//W3C//DTD SVG 20010904//EN"
 "http://www.w3.org/TR/2001/REC-SVG-20010904/DTD/svg10.dtd">
<svg version="1.0" xmlns="http://www.w3.org/2000/svg"
 width="512.000000pt" height="512.000000pt" viewBox="0 0 512.000000 512.000000"
 preserveAspectRatio="xMidYMid meet">
<metadata>
Created by potrace 1.11, written by Peter Selinger 2001-2013
</metadata>
<g transform="translate(0.000000,512.000000) scale(0.100000,-0.100000)"
fill="#000000" stroke="none">
<path d="M2235 4518 c-103 -11 -290 -53 -380 -85 -38 -13 -118 -47 -177 -75
l-106 -51 -104 51 c-227 113 -377 110 -451 -9 -56 -91 -44 -233 36 -417 l34
-79 -64 -94 c-36 -52 -95 -146 -133 -209 l-69 -115 -88 6 c-138 10 -298 -18
-381 -67 -76 -45 -56 -49 180 -45 134 2 217 0 221 -6 4 -5 -15 -61 -42 -124
-27 -63 -63 -161 -82 -219 -18 -58 -34 -106 -34 -107 -1 -2 -41 -14 -90 -28
-138 -40 -223 -84 -278 -144 -48 -51 -57 -83 -26 -89 9 -2 59 16 110 38 109
48 238 94 245 88 2 -3 -5 -58 -16 -123 -11 -65 -23 -185 -27 -267 l-6 -148
-46 -27 c-102 -59 -189 -142 -216 -207 -20 -48 -19 -66 5 -66 30 0 70 23 168
96 48 35 92 64 98 64 7 0 14 -27 18 -61 15 -132 84 -318 163 -436 49 -75 162
-193 238 -251 33 -25 64 -48 68 -52 4 -4 -13 -45 -37 -91 -63 -118 -78 -163
-62 -184 19 -27 44 -8 137 105 l82 100 61 -34 c87 -48 288 -135 451 -195 77
-29 149 -56 161 -60 19 -8 20 -13 11 -83 -12 -88 -3 -144 23 -158 32 -17 59
17 85 105 15 51 28 80 37 79 7 -1 118 -34 247 -74 269 -84 211 -83 490 -4 84
24 157 44 162 44 5 0 9 -15 9 -32 0 -43 25 -147 38 -160 17 -17 49 1 62 33 7
17 16 69 19 116 l6 85 191 63 c216 71 370 133 504 200 l92 46 38 -43 c67 -76
140 -100 140 -46 0 26 -31 81 -67 119 l-25 27 59 45 c88 68 214 203 270 289
l50 77 85 -58 c102 -70 139 -85 164 -67 39 29 -13 105 -125 184 -36 25 -67 46
-68 47 -1 0 13 41 32 91 42 112 72 257 85 411 5 65 10 124 10 132 0 10 15 12
73 6 110 -11 205 -39 305 -89 50 -25 98 -43 107 -40 29 11 17 53 -29 98 -77
77 -232 137 -392 152 l-71 7 -12 97 c-11 92 -51 283 -67 324 -7 19 -1 19 227
13 249 -6 284 -2 284 38 0 28 -32 40 -170 65 -80 15 -164 23 -252 24 l-132 1
-37 90 c-20 50 -59 133 -85 186 l-47 96 121 27 c67 14 174 35 237 46 81 13
118 24 127 36 17 23 16 29 -1 47 -34 34 -268 28 -466 -13 -52 -11 -95 -18 -95
-17 -10 21 -102 156 -154 226 l-69 92 29 64 c67 149 88 308 50 390 -26 58 -80
101 -143 115 -77 17 -175 -6 -315 -75 -62 -30 -115 -55 -119 -55 -3 0 -44 18
-89 40 -288 136 -665 196 -1000 158z m559 -137 c351 -71 644 -233 848 -467 69
-79 185 -231 246 -320 l41 -61 -99 -32 c-190 -63 -375 -158 -540 -279 -80 -59
-196 -166 -211 -194 -13 -25 6 -58 33 -58 12 0 82 40 157 88 163 106 291 179
395 227 76 34 252 96 313 109 l32 7 47 -93 c77 -152 115 -248 101 -252 -6 -2
-65 -13 -130 -25 -65 -12 -179 -42 -255 -66 -294 -95 -639 -304 -617 -374 10
-31 49 -37 83 -12 50 35 345 176 449 214 111 41 242 77 387 107 151 31 139 37
169 -87 31 -126 52 -274 44 -297 -5 -11 -19 -16 -51 -16 -171 0 -696 -142
-898 -244 -76 -38 -83 -43 -83 -71 0 -42 25 -43 132 -6 211 72 657 172 833
187 l83 7 -7 -104 c-10 -144 -31 -258 -69 -369 -23 -66 -37 -94 -47 -93 -8 1
-58 18 -110 38 -179 70 -442 113 -622 103 -91 -6 -118 -17 -118 -49 0 -35 36
-59 88 -59 116 0 418 -56 572 -106 153 -49 150 -45 94 -129 -51 -76 -193 -222
-261 -268 l-42 -29 -93 82 c-192 168 -345 243 -575 281 -146 24 -167 20 -161
-30 3 -22 12 -29 63 -44 33 -10 105 -32 160 -49 196 -59 277 -103 429 -234
l79 -67 -76 -39 c-104 -52 -247 -108 -456 -179 l-176 -59 -8 37 c-61 277 -126
414 -259 546 -63 61 -85 68 -113 37 -18 -20 -18 -21 6 -53 99 -133 166 -255
192 -352 19 -71 49 -247 42 -253 -7 -7 -377 -112 -395 -112 -14 0 -392 116
-451 139 l-27 10 24 101 c37 156 71 248 123 335 72 120 83 144 77 171 -5 20
-13 24 -41 24 -32 0 -40 -7 -85 -68 -92 -124 -160 -279 -210 -480 -9 -35 -15
-42 -28 -37 -9 3 -84 31 -166 62 -155 57 -368 150 -424 185 l-32 20 21 29 c30
42 203 195 269 238 30 19 113 65 185 101 79 40 131 72 133 82 2 9 -6 26 -17
37 -17 17 -25 18 -62 10 -60 -14 -181 -63 -259 -106 -96 -52 -193 -128 -298
-233 l-92 -93 -75 58 c-131 100 -220 213 -282 356 -39 90 -72 210 -80 295 l-6
60 74 22 c210 61 555 67 733 11 76 -23 91 -21 108 16 10 22 8 29 -11 49 -97
103 -498 136 -796 66 -44 -10 -89 -22 -99 -26 -18 -7 -19 -2 -14 122 3 71 16
186 28 257 l23 127 147 0 c244 0 331 -24 590 -163 78 -43 147 -77 153 -77 20
0 47 33 47 57 0 19 -23 39 -122 105 -236 156 -357 197 -615 205 l-161 6 34 99
c19 55 55 146 80 204 39 88 50 104 69 104 50 0 216 -50 292 -89 100 -50 398
-216 437 -244 37 -26 76 -14 91 27 9 27 6 32 -38 71 -46 40 -392 242 -487 284
-40 17 -142 47 -223 65 l-28 7 32 57 c102 181 299 444 416 553 196 184 476
313 792 364 134 22 465 14 605 -14z m973 -56 c30 -21 46 -77 38 -133 -8 -55
-53 -202 -62 -202 -3 0 -45 38 -93 84 -47 45 -114 103 -148 128 l-62 45 78 36
c125 58 206 72 249 42z m-2454 -24 c29 -10 74 -29 100 -43 l48 -24 -48 -34
c-26 -19 -94 -80 -149 -137 l-102 -102 -31 94 c-48 146 -40 239 23 265 27 12
92 4 159 -19z"/>
<path d="M2857 3968 c-41 -24 -77 -86 -77 -134 0 -16 8 -45 19 -64 50 -96 173
-108 250 -26 37 39 41 128 9 176 -46 68 -131 88 -201 48z"/>
<path d="M1800 3951 c-48 -26 -72 -62 -77 -118 -14 -155 174 -219 269 -92 48
64 23 166 -51 207 -47 27 -95 28 -141 3z"/>
<path d="M2227 3574 c-93 -17 -222 -65 -258 -97 -42 -35 -90 -220 -128 -482
-29 -203 -42 -415 -44 -705 l-2 -255 120 -61 c289 -146 570 -158 890 -37 56
21 221 97 233 108 1 1 -2 85 -8 186 -19 330 -67 677 -146 1051 -42 199 -41
198 -160 248 -136 56 -332 74 -497 44z m378 -75 c44 -10 103 -30 131 -44 l51
-25 32 -152 c42 -201 96 -519 116 -688 20 -177 40 -482 33 -502 -8 -21 -205
-103 -326 -136 -86 -23 -116 -26 -257 -26 -146 0 -168 3 -250 27 -87 27 -231
90 -268 119 -17 13 -18 29 -7 303 18 487 49 740 124 996 17 56 17 57 84 86 86
39 148 54 247 62 112 9 197 3 290 -20z"/>
<path d="M2270 3466 c-68 -19 -149 -57 -159 -73 -11 -21 21 -154 47 -191 28
-39 82 -86 132 -114 l40 -23 0 -254 0 -253 -61 -69 c-34 -38 -117 -119 -185
-180 -68 -62 -124 -118 -124 -125 0 -29 38 -11 115 56 94 80 83 90 110 -103
l18 -124 66 -7 c36 -3 105 -6 153 -6 l87 0 11 43 c6 23 20 74 30 112 10 39 24
89 30 112 l10 42 97 -70 c53 -38 101 -68 106 -66 23 7 16 27 -20 53 -81 60
-192 152 -285 237 l-98 88 0 108 c0 59 3 175 6 257 l7 149 52 23 c29 13 75 47
105 77 48 49 56 63 72 127 26 111 26 113 -36 142 -29 14 -73 30 -97 35 -59 14
-174 12 -229 -3z m195 -1049 c44 -38 81 -72 82 -75 2 -4 -14 -72 -36 -152 -34
-131 -40 -145 -59 -144 -12 0 -64 1 -115 2 l-94 2 -17 128 c-10 70 -20 137
-23 150 -4 17 11 38 73 102 66 68 80 78 93 67 9 -6 52 -43 96 -80z"/>
</g>
</svg>
